<svg width="22" height="18" viewBox="0 0 22 18" fill="none" xmlns="http://www.w3.org/2000/svg">
<path d="M18.66 0.989983C16.02 -0.810017 12.76 0.0299828 11 2.08998C9.23997 0.0299828 5.97997 -0.820017 3.33997 0.989983C1.93997 1.94998 1.05997 3.56998 0.999969 5.27998C0.859969 9.15998 4.29997 12.27 9.54997 17.04L9.64997 17.13C10.41 17.82 11.58 17.82 12.34 17.12L12.45 17.02C17.7 12.26 21.13 9.14998 21 5.26998C20.94 3.56998 20.06 1.94998 18.66 0.989983ZM11.1 15.55L11 15.65L10.9 15.55C6.13997 11.24 2.99997 8.38998 2.99997 5.49998C2.99997 3.49998 4.49997 1.99998 6.49997 1.99998C8.03997 1.99998 9.53997 2.98998 10.07 4.35998H11.94C12.46 2.98998 13.96 1.99998 15.5 1.99998C17.5 1.99998 19 3.49998 19 5.49998C19 8.38998 15.86 11.24 11.1 15.55Z" fill="#6D7678"/>
</svg>
