<svg width="32" height="32" viewBox="0 0 32 32" fill="none" xmlns="http://www.w3.org/2000/svg">
<path fill-rule="evenodd" clip-rule="evenodd" d="M18 12H8C7.5 12 7 11.6 7 11C7 10.4 7.5 10 8 10H18C18.6 10 19 10.4 19 11C19 11.6 18.6 12 18 12ZM7 16C7 16.6 7.5 17 8 17H24C24.5 17 25 16.6 25 16C25 15.4 24.5 15 24 15H8C7.5 15 7 15.4 7 16ZM8 22H12C12.6 22 13 21.5 13 21C13 20.5 12.6 20 12 20H8C7.5 20 7 20.5 7 21C7 21.5 7.5 22 8 22Z" fill="#6D7678"/>
<path d="M4 1H28V-1H4V1ZM31 4V28H33V4H31ZM28 31H4V33H28V31ZM1 28V4H-1V28H1ZM4 31C2.34315 31 1 29.6569 1 28H-1C-1 30.7614 1.23858 33 4 33V31ZM31 28C31 29.6569 29.6569 31 28 31V33C30.7614 33 33 30.7614 33 28H31ZM28 1C29.6569 1 31 2.34315 31 4H33C33 1.23858 30.7614 -1 28 -1V1ZM4 -1C1.23858 -1 -1 1.23858 -1 4H1C1 2.34315 2.34315 1 4 1V-1Z" fill="#CFD4DC"/>
</svg>
