<svg width="32" height="32" viewBox="0 0 32 32" fill="none" xmlns="http://www.w3.org/2000/svg">
<path fill-rule="evenodd" clip-rule="evenodd" d="M8.10287 7.55825C8.27116 7.21647 8.61904 7 9.00001 7H23C23.381 7 23.7289 7.21647 23.8971 7.55825C24.0654 7.90003 24.0249 8.30775 23.7926 8.60971L19 14.8401V24C19 24.4045 18.7564 24.7691 18.3827 24.9239C18.009 25.0787 17.5789 24.9931 17.2929 24.7071L13.2929 20.7071C13.1054 20.5196 13 20.2652 13 20V14.8401L8.20738 8.60971C7.9751 8.30775 7.93458 7.90003 8.10287 7.55825ZM11.0309 9L14.7926 13.8903C14.9271 14.0651 15 14.2795 15 14.5V19.5858L17 21.5858V14.5C17 14.2795 17.0729 14.0651 17.2074 13.8903L20.9691 9H11.0309Z" fill="#55B465"/>
<path d="M4 1H28V-1H4V1ZM31 4V28H33V4H31ZM28 31H4V33H28V31ZM1 28V4H-1V28H1ZM4 31C2.34315 31 1 29.6569 1 28H-1C-1 30.7614 1.23858 33 4 33V31ZM31 28C31 29.6569 29.6569 31 28 31V33C30.7614 33 33 30.7614 33 28H31ZM28 1C29.6569 1 31 2.34315 31 4H33C33 1.23858 30.7614 -1 28 -1V1ZM4 -1C1.23858 -1 -1 1.23858 -1 4H1C1 2.34315 2.34315 1 4 1V-1Z" fill="#99CEA0"/>
</svg>
