<svg width="14" height="14" viewBox="0 0 14 14" fill="none" xmlns="http://www.w3.org/2000/svg">
<path fill-rule="evenodd" clip-rule="evenodd" d="M7 12.87C10.2419 12.87 12.87 10.2419 12.87 7C12.87 3.75809 10.2419 1.13 7 1.13C3.75809 1.13 1.13 3.75809 1.13 7C1.13 10.2419 3.75809 12.87 7 12.87ZM7 14C10.866 14 14 10.866 14 7C14 3.13401 10.866 0 7 0C3.13401 0 0 3.13401 0 7C0 10.866 3.13401 14 7 14ZM5.85858 4.58019C5.64258 4.88018 5.56506 5.25714 5.56506 5.50006C5.56506 5.8121 5.3121 6.06506 5.00006 6.06506C4.68802 6.06506 4.43506 5.8121 4.43506 5.50006C4.43506 5.07631 4.55753 4.45327 4.94154 3.91993C5.34629 3.35777 6.01591 2.93506 7.00006 2.93506C7.96754 2.93506 8.63542 3.32031 9.04683 3.85176C9.43804 4.35712 9.56506 4.95109 9.56506 5.36023C9.56506 5.90444 9.39211 6.31316 9.11336 6.63276C8.88956 6.88935 8.60144 7.07724 8.38493 7.21842L8.38493 7.21843C8.35929 7.23514 8.33467 7.2512 8.31127 7.26664C8.06313 7.4304 7.89228 7.55838 7.77082 7.72679C7.6612 7.8788 7.56506 8.10331 7.56506 8.50006C7.56506 8.8121 7.3121 9.06506 7.00006 9.06506C6.68802 9.06506 6.43506 8.8121 6.43506 8.50006C6.43506 7.8968 6.58892 7.43382 6.85429 7.06583C7.10784 6.71425 7.43698 6.48973 7.68885 6.32352L7.75067 6.28277L7.75068 6.28277C7.99331 6.123 8.14655 6.0221 8.26176 5.89C8.35801 5.77965 8.43506 5.63593 8.43506 5.36023C8.43506 5.14931 8.36207 4.81319 8.15328 4.54348C7.9647 4.29987 7.63258 4.06506 7.00006 4.06506C6.3842 4.06506 6.05383 4.30901 5.85858 4.58019ZM7.02505 11.45C7.42546 11.45 7.75005 11.1254 7.75005 10.725C7.75005 10.3246 7.42546 10 7.02505 10C6.62464 10 6.30005 10.3246 6.30005 10.725C6.30005 11.1254 6.62464 11.45 7.02505 11.45Z" fill="#55B465"/>
</svg>
