<svg width="18" height="20" viewBox="0 0 18 20" fill="none" xmlns="http://www.w3.org/2000/svg">
<path fill-rule="evenodd" clip-rule="evenodd" d="M9.84753 1.74984C9.84753 1.28178 9.46809 0.902344 9.00003 0.902344C8.53197 0.902344 8.15253 1.28178 8.15253 1.74984V2.44527C6.10346 2.65976 4.76863 3.65707 3.96564 4.96196C3.09649 6.37434 2.90242 8.05795 2.90242 9.24992V13.889L1.23189 14.4459C0.837568 14.5774 0.596779 14.9754 0.663367 15.3857C0.729954 15.796 1.08427 16.0974 1.49992 16.0974H5.95099C6.01999 16.6629 6.17336 17.2371 6.47688 17.7337C6.97769 18.5532 7.82318 19.0562 9.00003 19.0562C10.1769 19.0562 11.0224 18.5532 11.5232 17.7337C11.8267 17.2371 11.9801 16.6629 12.0491 16.0974H16.4999C16.9156 16.0974 17.2699 15.796 17.3365 15.3857C17.4031 14.9754 17.1623 14.5774 16.768 14.4459L15.0974 13.889V9.24992C15.0974 8.05795 14.9033 6.37435 14.0342 4.96197C13.2312 3.65713 11.8965 2.65984 9.84753 2.4453V1.74984ZM7.92317 16.8498C7.8044 16.6555 7.71795 16.4015 7.6641 16.0974H10.336C10.2821 16.4015 10.1956 16.6555 10.0769 16.8498C9.90269 17.1348 9.62318 17.3612 9.00003 17.3612C8.37687 17.3612 8.09737 17.1348 7.92317 16.8498ZM4.59742 9.24992V14.4024H13.4024V9.24992C13.4024 8.19189 13.2215 6.87546 12.5906 5.8503C11.9994 4.88955 10.9644 4.09735 8.99992 4.09734C7.03547 4.09734 6.00043 4.88954 5.4092 5.85029C4.77835 6.87545 4.59742 8.19189 4.59742 9.24992Z" fill="#55B465"/>
</svg>
