<svg width="16" height="16" viewBox="0 0 16 16" fill="none" xmlns="http://www.w3.org/2000/svg">
<path fill-rule="evenodd" clip-rule="evenodd" d="M8.32985 12.6095C8.03695 12.3166 8.03695 11.8417 8.32985 11.5488L11.659 8.21967C11.9519 7.92678 12.4268 7.92678 12.7197 8.21967C13.0126 8.51256 13.0126 8.98744 12.7197 9.28033L9.39051 12.6095C9.09761 12.9024 8.62274 12.9024 8.32985 12.6095Z" fill="#6C737D"/>
<path fill-rule="evenodd" clip-rule="evenodd" d="M3.04043 11.8989C2.74754 11.606 2.74754 11.1311 3.04043 10.8382L10.909 2.96967C11.2019 2.67678 11.6768 2.67678 11.9697 2.96967C12.2626 3.26256 12.2626 3.73744 11.9697 4.03033L4.10109 11.8989C3.8082 12.1918 3.33333 12.1918 3.04043 11.8989Z" fill="#6C737D"/>
</svg>
